<?xml version="1.0" encoding="utf-8"?>
<!-- Generator: Adobe Illustrator 24.3.0, SVG Export Plug-In . SVG Version: 6.00 Build 0)  -->
<svg version="1.1" id="레이어_1" xmlns="http://www.w3.org/2000/svg" xmlns:xlink="http://www.w3.org/1999/xlink" x="0px"
	 y="0px" viewBox="0 0 260.79 147.4" style="enable-background:new 0 0 260.79 147.4;" xml:space="preserve">
<style type="text/css">
	.st0{fill:#C9CACA;}
	.st1{fill:#FBC400;}
	.st2{fill:#F08310;}
	.st3{fill:#54565A;}
</style>
<g>
	<g>
		<g>
			<path class="st0" d="M19.91,95.1h16.53c0.98,0,1.78-0.8,1.78-1.78V76.4h20.09v16.91c0,0.98,0.8,1.78,1.78,1.78h16.53
				c0.97,0,1.78-0.8,1.78-1.78V78.19c0-0.98-0.57-2.35-1.27-3.05L59.58,58.97c-0.32-0.31-0.77-0.6-1.26-0.82
				c-0.6-0.26-1.36-0.43-1.78-0.43H40.01c-0.51,0-1.35,0.23-1.78,0.43c-0.49,0.23-0.94,0.52-1.26,0.82L19.39,75.14
				c-0.69,0.7-1.26,2.06-1.26,3.05v15.12C18.13,94.29,18.93,95.1,19.91,95.1z"/>
		</g>
		<g>
			<g>
				<path class="st1" d="M76.63,76.4H58.32v16.91c0,0.98,0.8,1.78,1.78,1.78h16.53c0.97,0,1.78-0.8,1.78-1.78V78.19
					C78.41,77.2,77.61,76.4,76.63,76.4"/>
			</g>
			<g>
				<path class="st1" d="M19.92,76.4c-0.98,0-1.79,0.8-1.79,1.79v15.12c0,0.98,0.81,1.78,1.79,1.78h16.53c0.98,0,1.78-0.8,1.78-1.78
					V76.4H19.92z"/>
			</g>
			<g>
				<path class="st1" d="M56.54,57.71H40.01c-0.51,0-1.35,0.23-1.78,0.43V76.4h20.09V58.14C57.72,57.88,56.96,57.71,56.54,57.71"/>
			</g>
			<g>
				<path class="st2" d="M58.32,58.14c0.49,0.23,0.94,0.52,1.26,0.83l17.56,16.17c0.69,0.7,1.27,2.06,1.27,3.05
					c0-0.98-0.81-1.79-1.78-1.79H58.32V58.14z"/>
			</g>
			<g>
				<path class="st2" d="M38.23,58.14c-0.5,0.23-0.94,0.52-1.26,0.83L19.39,75.14c-0.69,0.7-1.26,2.06-1.26,3.05
					c0-0.98,0.81-1.79,1.79-1.79h18.31V58.14z"/>
			</g>
		</g>
	</g>
	<g>
		<g>
			<path class="st2" d="M214.84,76.54c1.59,0,2.48,0.18,3.01,0.66c0.53,0.49,0.66,1.23,0.62,2.46h7.58c0-8.21-4.55-8.92-11.21-8.92
				c-9.49,0-11.07,3.99-11.07,11.81c0,9.1,2.12,11.77,11.07,11.77c4.12,0,6.9-0.21,8.65-1.53c1.82-1.28,2.56-3.66,2.56-7.95h-7.58
				c0,2.84-0.2,3.68-3.63,3.68c-2.86,0-3.49-0.57-3.49-5.96C211.36,77.29,212.14,76.54,214.84,76.54z"/>
		</g>
		<g>
			<path class="st2" d="M238,88.53c-2.88,0-3.48-0.57-3.48-5.96c0-5.27,0.79-6.02,3.48-6.02c1.6,0,2.47,0.18,3.01,0.66
				c0.52,0.49,0.65,1.23,0.6,2.46h7.6c0-8.21-4.55-8.92-11.21-8.92c-9.48,0-11.07,3.99-11.07,11.81c0,9.1,2.12,11.77,11.07,11.77
				c4.09,0,6.88-0.21,8.66-1.53c1.79-1.28,2.56-3.66,2.56-7.95h-7.6C241.61,87.69,241.43,88.53,238,88.53z"/>
		</g>
		<g>
			<path class="st3" d="M201.04,82.56c0-9.38-2.6-11.81-11.31-11.81c-9.3,0-11.33,2.95-11.33,11.81c0,8.6,2.21,11.77,11.33,11.77
				c3.37,0,6.2-0.27,8.18-1.36c1.98-1.14,3.13-3.11,3.13-6.59h-7.44c0,2.42-1.51,2.67-3.86,2.67c-3.12,0-3.74-1.18-3.74-5.21h15.05
				V82.56z M185.99,79.67c0.09-3.03,0.93-3.64,3.62-3.64c2.56,0,3.84,0.21,3.84,3.64H185.99z"/>
		</g>
		<g>
			<path class="st3" d="M176.91,94.06V78.3c0-5.36-2.73-7.55-8.07-7.55c-2.9,0-6.38,1.24-6.79,4.53c-0.4-3.96-3.75-4.53-7.02-4.53
				c-2.59,0-5.73,0.8-6.66,3.51v-3.25h-7.38v23.05h7.59V80.98c0-2.75,0.6-4.44,3.72-4.44c2.65,0,2.78,1.46,2.87,3.57v13.96h7.59
				V80.98c0-2.45,0.58-4.44,3.54-4.44c2.96,0,3.04,2.15,3.04,4.18v13.34H176.91z"/>
		</g>
		<g>
			<path class="st3" d="M127.7,94.33c9.6,0,11.61-2.29,11.61-11.77c0-9.75-1.91-11.81-11.61-11.81c-9.67,0-11.58,2.37-11.58,11.81
				C116.12,91.78,118.19,94.33,127.7,94.33z M127.83,76.55c3.51,0,3.88,1.01,3.88,6.01c0,5.02-0.36,5.96-3.88,5.96
				c-3.67,0-4.11-0.95-4.11-5.96C123.72,77.56,124.16,76.55,127.83,76.55z"/>
		</g>
		<g>
			<polygon class="st2" points="99.4,79.34 94.06,85.29 102.28,85.29 107.62,79.34 			"/>
		</g>
		<g>
			<polygon class="st3" points="95.09,82.67 95.09,70.99 87.47,70.99 87.47,94.04 95.09,94.04 95.09,86.27 91.87,86.27 			"/>
		</g>
		<g>
			<polygon class="st3" points="106.6,78.36 109.81,78.36 106.6,81.95 106.6,94.04 114.23,94.04 114.23,70.99 106.6,70.99 			"/>
		</g>
	</g>
</g>
</svg>
